<?xml version="1.0" standalone="no"?>
<!DOCTYPE svg PUBLIC "-//W3C//DTD SVG 20010904//EN"
 "http://www.w3.org/TR/2001/REC-SVG-20010904/DTD/svg10.dtd">
<svg version="1.0" xmlns="http://www.w3.org/2000/svg"
 width="300.000000pt" height="294.000000pt" viewBox="0 0 300.000000 294.000000"
 preserveAspectRatio="xMidYMid meet">
<metadata>
Created by potrace 1.10, written by Peter Selinger 2001-2011
</metadata>
<g transform="translate(0.000000,294.000000) scale(0.050000,-0.050000)"
fill="#408bc4" stroke="none">
<path d="M2960 5546 c-361 -129 -462 -367 -473 -1116 l-7 -480 -115 -105 -115
-105 -12 255 c-32 648 -257 1045 -525 923 -132 -60 -95 -237 49 -238 117 0
216 -349 232 -812 l11 -322 -170 -143 c-397 -334 -509 -647 -292 -809 198
-146 522 180 637 642 21 83 50 162 64 175 83 79 264 229 276 229 8 0 20 -77
27 -172 l14 -172 -119 -127 c-231 -247 -357 -619 -236 -698 92 -61 194 -1 194
113 0 75 183 425 206 395 3 -5 27 -144 51 -309 56 -369 132 -746 195 -965 58
-201 58 -199 5 -216 -24 -8 -179 -85 -345 -172 l-300 -159 -65 76 c-126 149
-134 307 -26 501 134 238 -48 382 -196 155 -167 -253 -167 -573 -2 -766 62
-71 71 -104 32 -105 -14 0 -299 -143 -635 -318 -649 -337 -691 -368 -645 -469
44 -95 113 -90 335 25 110 57 424 220 697 362 l498 259 102 -58 c809 -457
1973 124 2184 1089 l38 173 506 261 c538 279 559 296 508 408 -50 111 -116 88
-801 -279 -248 -133 -242 -132 -242 -36 0 408 -518 1020 -980 1156 -190 56
-513 10 -665 -96 -30 -21 -56 -36 -57 -32 -43 113 -43 403 -1 442 528 489 781
1294 489 1558 -82 75 -238 114 -326 82z m169 -290 c107 -154 -13 -551 -272
-897 l-127 -169 -6 180 c-8 235 28 548 81 688 75 203 247 308 324 198z m-430
-1839 c-86 -73 -108 -72 -70 1 33 63 65 82 109 66 21 -8 10 -27 -39 -67z m177
-49 c3 -21 -8 -56 -25 -78 -28 -38 -30 -35 -30 47 -1 88 43 113 55 31z m678
-57 c380 -177 662 -568 715 -991 l11 -90 -573 -295 c-315 -163 -577 -292 -581
-288 -33 34 -208 916 -276 1393 -7 50 -17 106 -23 125 -8 28 26 52 156 115
209 101 398 112 571 31z m-1554 -60 c0 -31 -58 -111 -81 -111 -31 0 -22 80 11
93 16 6 26 18 21 26 -5 8 4 14 20 14 16 0 29 -10 29 -22z m580 -109 c0 -32 5
-73 12 -90 9 -23 0 -32 -30 -32 -44 0 -54 44 -29 135 17 64 47 56 47 -13z
m176 -96 c-26 -56 -116 -91 -116 -45 0 33 127 147 136 122 4 -12 -5 -47 -20
-77z m-876 37 c0 -25 -114 -191 -160 -233 -71 -64 -48 13 41 137 74 103 119
140 119 96z m2578 -721 c21 -14 8 -28 -55 -60 -89 -46 -102 -37 -52 34 33 47
62 54 107 26z m120 -70 c18 -21 17 -40 -1 -80 -34 -75 -57 -64 -57 28 0 83 19
100 58 52z m-327 -308 c-11 -28 -16 -28 -46 3 -32 31 -31 38 6 107 l39 74 6
-76 c4 -42 1 -90 -5 -108z m170 -23 c-42 -59 -125 -83 -149 -44 -11 17 170
127 185 113 4 -4 -12 -35 -36 -69z m-270 -273 c-276 -557 -964 -898 -1491
-741 -196 59 -200 59 -200 3 0 -27 -7 -51 -15 -52 -8 -2 -49 -5 -90 -8 -126
-8 -108 7 183 157 40 20 149 79 242 130 94 51 175 96 182 99 7 3 24 -38 38
-90 38 -142 71 -186 140 -186 62 0 140 60 140 107 0 15 -18 79 -40 143 -22 64
-40 123 -40 132 0 8 212 123 471 256 259 133 491 255 515 272 78 55 66 -20
-35 -222z m-1082 -47 c14 -22 -78 -89 -106 -78 -10 4 -11 26 -1 52 17 46 85
62 107 26z m150 -70 c25 -30 11 -111 -18 -111 -21 0 -41 51 -41 102 0 45 26
49 59 9z m-284 -189 c20 -78 20 -79 -28 -57 -51 23 -52 25 -34 90 17 67 40 55
62 -33z m225 -33 c0 -41 -49 -89 -91 -89 -65 0 -62 32 6 69 59 32 85 38 85 20z
m-1000 -201 c0 -8 -113 -68 -129 -68 -29 0 -7 78 24 85 35 7 105 -4 105 -17z
m296 -63 c8 -53 4 -54 -84 -17 -107 44 -111 76 -9 68 73 -5 88 -13 93 -51z
m-366 -136 l60 -49 -75 0 c-67 0 -75 6 -75 50 0 62 14 62 90 -1z"/>
</g>
</svg>
